<svg width="78" height="48" viewBox="0 0 78 48" fill="none" xmlns="http://www.w3.org/2000/svg">
<mask id="path-1-inside-1_1636_2614" fill="white">
<path d="M0 0H78V47.9827H0V0Z"/>
</mask>
<path d="M0 0H78V47.9827H0V0Z" fill="#F9FAFB"/>
<path d="M78 47.9827V48.9827H79V47.9827H78ZM77 0V47.9827H79V0H77ZM78 46.9827H0V48.9827H78V46.9827Z" fill="#E5E7EB" mask="url(#path-1-inside-1_1636_2614)"/>
<path d="M40.9758 21.7241C40.9758 16.3446 37.0612 14 33.4071 14H28.9513C25.2922 14 21.3228 16.068 21.3228 21.4476C21.3228 26.8272 25.8629 28.9751 29.5171 28.9751H32.7922L37.7015 33.9674L40.9799 33.9724L40.9758 21.7241C40.9758 21.7541 40.9758 21.6941 40.9758 21.7241ZM37.695 29.5282L34.4297 25.6436H29.5171C27.141 25.6436 24.6241 24.4684 24.6241 21.4476C24.6241 18.4268 26.7651 17.3024 29.142 17.3024H33.2236C35.5997 17.3024 37.7031 18.6166 37.7031 21.6375L37.6942 29.5282H37.695Z" fill="black"/>
<path d="M56.6149 33.9828H56.6773V33.9204V30.6205V30.5581H56.6149H48.6908C47.9124 30.5581 47.2794 29.9158 47.2794 29.1214V14.4794V14.417H47.217H43.9419H43.8795V14.4794V29.4228C43.8795 31.94 45.8862 33.9828 48.3633 33.9828H56.6149Z" fill="black" stroke="black" stroke-width="0.2"/>
</svg>
